<svg id="spinner" xmlns="http://www.w3.org/2000/svg" width="18.06cm" height="18.06cm" xmlns:xlink="http://www.w3.org/1999/xlink" viewBox="0 0 512 512"><defs><style>.cls-1{fill:url(#linear-gradient-4);filter:url(#drop-shadow-4);}.cls-2{fill:url(#linear-gradient-3);filter:url(#drop-shadow-3);}.cls-3{fill:url(#linear-gradient);filter:url(#drop-shadow-1);}.cls-4{fill:url(#linear-gradient-2);filter:url(#drop-shadow-2);}</style><linearGradient id="linear-gradient" x1="320.16" y1="369.61" x2="490.02" y2="369.61" gradientUnits="userSpaceOnUse"><stop offset="0" stop-color="#8c52ff"></stop><stop offset=".24" stop-color="#a853d5"></stop><stop offset="1" stop-color="#ff5757"></stop></linearGradient><filter id="drop-shadow-1" x="307.83" y="264.52" width="200.16" height="216" filterUnits="userSpaceOnUse"><feOffset dx="2.83" dy="2.83"></feOffset><feGaussianBlur result="blur" stdDeviation="5"></feGaussianBlur><feFlood flood-color="#000" flood-opacity="1"></feFlood><feComposite in2="blur" operator="in"></feComposite><feComposite in="SourceGraphic"></feComposite></filter><linearGradient id="linear-gradient-2" x1="201.76" y1="249.51" x2="456.04" y2="249.51" xlink:href="#linear-gradient"></linearGradient><filter id="drop-shadow-2" x="189.51" y="37.24" width="284.4" height="430.32" filterUnits="userSpaceOnUse"><feOffset dx="2.83" dy="2.83"></feOffset><feGaussianBlur result="blur-2" stdDeviation="5"></feGaussianBlur><feFlood flood-color="#000" flood-opacity="1"></feFlood><feComposite in2="blur-2" operator="in"></feComposite><feComposite in="SourceGraphic"></feComposite></filter><linearGradient id="linear-gradient-3" x1="21.98" y1="142.39" x2="191.84" y2="142.39" xlink:href="#linear-gradient"></linearGradient><filter id="drop-shadow-3" x="9.75" y="37.24" width="200.16" height="216" filterUnits="userSpaceOnUse"><feOffset dx="2.83" dy="2.83"></feOffset><feGaussianBlur result="blur-3" stdDeviation="5"></feGaussianBlur><feFlood flood-color="#000" flood-opacity="1"></feFlood><feComposite in2="blur-3" operator="in"></feComposite><feComposite in="SourceGraphic"></feComposite></filter><linearGradient id="linear-gradient-4" x1="55.96" y1="262.49" x2="310.24" y2="262.49" xlink:href="#linear-gradient"></linearGradient><filter id="drop-shadow-4" x="43.59" y="50.2" width="284.64" height="430.32" filterUnits="userSpaceOnUse"><feOffset dx="2.83" dy="2.83"></feOffset><feGaussianBlur result="blur-4" stdDeviation="5"></feGaussianBlur><feFlood flood-color="#000" flood-opacity="1"></feFlood><feComposite in2="blur-4" operator="in"></feComposite><feComposite in="SourceGraphic"></feComposite></filter></defs><path class="cls-3" d="M334.36,276.75c43.2,32.33,126.91,94.88,129.44,96.78,66.03,49.34-9.15,82.31-45.74,88.22-16.76,2.75-36.82-2.54-57.8-12.26-42.66-47.55-51.27-106.82-25.9-172.75Z"></path><path class="cls-4" d="M314.53,92.06c57.96-45.96,120.45-62.34,140.05-10.14,15.84,42.16-102.16,147.81-120.22,194.83-25.37,65.93-16.76,125.2,25.9,172.75-45.81-21.24-95.85-63.82-125.06-90.44-78.79-72.16-4.46-200.54,79.33-266.99Z"></path><path class="cls-2" d="M177.64,235.25c-43.2-32.33-126.91-94.88-129.44-96.78-66.03-49.34,9.15-82.31,45.74-88.22,16.76-2.75,36.82,2.54,57.8,12.26,42.66,47.55,51.27,106.82,25.9,172.75Z"></path><path class="cls-1" d="M197.47,419.94c-57.96,45.96-120.45,62.34-140.05,10.14-15.84-42.16,102.16-147.81,120.22-194.83,25.37-65.93,16.76-125.2-25.9-172.75,45.81,21.24,95.85,63.82,125.06,90.44,78.79,72.16,4.46,200.54-79.33,266.99Z"></path></svg>