<svg xmlns="http://www.w3.org/2000/svg" width="60" height="60" viewBox="0 0 60 60" version="1.1"><path d="M 2.646 2.452 L 0 4.905 -0 30 L -0 55.095 2.646 57.548 L 5.292 60 29.950 60 L 54.608 60 57.804 56.702 L 61 53.405 61 28.643 C 61 15.025, 60.615 4.120, 60.145 4.410 C 59.675 4.701, 58.247 3.827, 56.971 2.469 L 54.651 0 29.972 0 L 5.292 0 2.646 2.452 M 0.435 30 C 0.435 44.025, 0.575 49.763, 0.747 42.750 C 0.919 35.738, 0.919 24.263, 0.747 17.250 C 0.575 10.238, 0.435 15.975, 0.435 30 M 6.456 7.254 C 6.183 7.964, 6.082 18.660, 6.230 31.023 L 6.500 53.500 30 53.500 L 53.500 53.500 53.500 30 L 53.500 6.500 30.226 6.232 C 11.938 6.021, 6.845 6.240, 6.456 7.254 M 47.250 46.703 C 45.541 47.337, 45.668 50.659, 47.427 51.334 C 48.212 51.635, 49.411 51.210, 50.091 50.390 C 51.082 49.196, 51.047 48.635, 49.914 47.570 C 49.136 46.838, 47.938 46.448, 47.250 46.703" stroke="none" fill="#040404" fill-rule="evenodd"/><path d="M 8.667 8.667 C 8.300 9.033, 8 13.308, 8 18.167 L 8 27 17 27 C 25.333 27, 26 26.852, 26 25 C 26 23.205, 25.333 23, 19.500 23 L 13 23 13 18 L 13 13 22.917 13 C 29.951 13, 32.960 12.637, 33.269 11.750 C 34.410 8.480, 32.848 8, 21.060 8 C 14.610 8, 9.033 8.300, 8.667 8.667 M 15.380 16.452 C 14.348 19.141, 16.086 20, 22.559 20 L 29 20 29 25 L 29 30 18.500 30 C 8.615 30, 8 30.119, 8 32.030 C 8 33.978, 8.512 34.049, 20.750 33.780 L 33.500 33.500 33.801 26.521 C 34.302 14.891, 34.391 15, 24.450 15 C 17.930 15, 15.807 15.340, 15.380 16.452" stroke="none" fill="#f2641f" fill-rule="evenodd"/></svg>